<svg xmlns="http://www.w3.org/2000/svg" viewBox="0 0 1248 164"><g fill="none" fill-rule="evenodd"><path fill="#000" d="M265.3 130.8c-1 0-1.8-.3-2.6-.8a4 4 0 0 1-1.6-2.2l-17.9-54.7-3.4-12.2-1.3 12.6-5.8 53.1c-.2 1-.7 1.8-1.4 2.5-.7.6-1.5.9-2.4.9h-10.2c-1 0-1.8-.3-2.3-1-.5-.6-.8-1.4-.7-2.4L227 36.8c0-1.2.5-2.2 1.4-3 .9-.7 2-1.1 3.2-1.1h12.3c1 0 1.9.3 2.7.9.7.6 1.2 1.3 1.5 2.2l20.3 62.5 2.8 9.3 2.7-9.2 20.4-62.7a4 4 0 0 1 1.6-2.2c.8-.5 1.6-.8 2.6-.8h11.3c1.2 0 2.3.4 3.2 1.1.8.8 1.3 1.8 1.4 3l11.2 89.8c.1 1-.1 1.8-.6 2.5-.6.6-1.4.9-2.4.9h-10.5a3.8 3.8 0 0 1-3.8-3.3l-6.1-54.2-1.4-11.6-3.5 12.7-17.5 54.1c-.2.9-.8 1.6-1.5 2.2-.8.6-1.7 1-2.7 1h-10.3zm96.4 1c-7.6 0-13.7-2.2-18.5-6.5a21.5 21.5 0 0 1-7.1-16.7c0-6.2 2.2-11.4 6.5-15.5a33.7 33.7 0 0 1 18.3-8c2-.3 3.9-.5 5.7-1a115 115 0 0 0 11.5-1.5c3.3-.6 5-2.5 5-5.7 0-3.4-1.4-6-4.1-8a17 17 0 0 0-10.4-3.1c-7.3 0-12.6 2.6-16 8-.7 1.1-1.6 1.7-2.5 1.7a3 3 0 0 1-1.8-.5l-7.6-5.2a2.6 2.6 0 0 1-1.2-2.3c0-.2 0-.7.3-1.2 2.6-5 6.5-8.8 11.6-11.6 5.2-2.7 11-4.1 17.5-4.1a34 34 0 0 1 15.7 3.4 25 25 0 0 1 10.5 9.6c2.5 4.2 3.7 9 3.7 14.4v49.2a2.8 2.8 0 0 1-2.8 2.8h-9.2c-.8 0-1.5-.2-2-.7-.6-.5-.9-1.2-.9-2.1v-5.3a29.6 29.6 0 0 1-22.2 9.9zm1.2-14.5a20 20 0 0 0 10-2.7c3.2-1.9 5.8-4.2 7.7-7.2 2-2.9 3-6 3-9.2v-2.8L373.3 97l-10.7 1.5c-7.5 1.4-11.2 4.6-11.2 9.6 0 2.8 1 5 3.2 6.8a13 13 0 0 0 8.2 2.5zm55.5 38.9a2.8 2.8 0 0 1-2.9-2.9V55.2a2.8 2.8 0 0 1 2.9-2.9h8.8a2.8 2.8 0 0 1 2.8 2.9v6a23.4 23.4 0 0 1 20-10.6 28 28 0 0 1 15 4.3 31.8 31.8 0 0 1 15.2 26.9v18.8a31.4 31.4 0 0 1-15 26.9 28.3 28.3 0 0 1-15.2 4.3c-3.4 0-6.6-.7-9.7-2.1-3.1-1.4-6-3.4-8.5-6v29.6a2.8 2.8 0 0 1-2.8 2.9h-10.6zm29.5-40c4.5 0 8.2-1.6 11.3-4.7 3.2-3.1 4.7-6.9 4.7-11.3v-18c0-4.5-1.5-8.2-4.7-11.4a15.4 15.4 0 0 0-11.3-4.6c-4.4 0-8.2 1.5-11.4 4.6a15.3 15.3 0 0 0-4.7 11.4v18c0 4.4 1.6 8.2 4.7 11.3 3.2 3.1 7 4.7 11.4 4.7zm53.5-20a2.8 2.8 0 0 1-2.9-3v-10a2.8 2.8 0 0 1 2.9-2.8h37a2.8 2.8 0 0 1 2.8 2.8v10a2.8 2.8 0 0 1-2.9 3h-37zm84.5 33.8c-7 0-12.7-2.2-17.1-6.5a23 23 0 0 1-6.6-17v-39H553a2.8 2.8 0 0 1-2.9-2.8v-9.5a2.8 2.8 0 0 1 2.9-2.9h9.3V37.7a2.8 2.8 0 0 1 2.9-2.8h10.5a2.8 2.8 0 0 1 2.9 2.8v14.6h22.9a2.8 2.8 0 0 1 2.8 2.9v9.6a2.8 2.8 0 0 1-2.8 2.9h-23v38a9 9 0 0 0 2.5 6.5 8.4 8.4 0 0 0 6.3 2.5l14.2.1a2.8 2.8 0 0 1 2.8 2.9v9.5a2.8 2.8 0 0 1-2.8 2.8H586zm59.4 1.8a31.8 31.8 0 0 1-27.9-15.9 30.6 30.6 0 0 1-4.3-15.8V82.3a32 32 0 0 1 32.3-31.7 31.8 31.8 0 0 1 27.8 15.8 30.6 30.6 0 0 1 4.4 15.9v17.8a32 32 0 0 1-32.3 31.7zm0-15.8c4.5 0 8.2-1.5 11.3-4.6 3.2-3.2 4.7-7 4.7-11.3V82.3c0-4.4-1.5-8.2-4.7-11.3a15.4 15.4 0 0 0-11.3-4.7c-4.4 0-8.2 1.6-11.3 4.7a15.4 15.4 0 0 0-4.7 11.3v17.8a16 16 0 0 0 16 15.9zm53.5-19.9a2.8 2.8 0 0 1-2.9-2.8v-10a2.8 2.8 0 0 1 2.9-2.9h37a2.8 2.8 0 0 1 2.8 2.8v10a2.8 2.8 0 0 1-2.8 3h-37zm93.5 35.7a34 34 0 0 1-17.6-4.8 35.7 35.7 0 0 1-17.5-31V67a35.2 35.2 0 0 1 17.5-31 33.6 33.6 0 0 1 17.6-4.8c5.5 0 10.7 1 15.4 3 4.8 2.1 8.9 5 12.2 9 .6.6.9 1.4.9 2.3 0 .9-.4 1.8-1.1 2.7l-6 6.2c-.7.7-1.4 1.1-2.2 1.1-.9 0-1.7-.4-2.4-1.2a21.5 21.5 0 0 0-16.7-7.2 17 17 0 0 0-9.3 2.7 20.1 20.1 0 0 0-6.8 7.3 20 20 0 0 0-2.6 10V96a20.3 20.3 0 0 0 9.4 17.2 17 17 0 0 0 9.3 2.7c6.8 0 12.4-2.4 16.7-7.2.7-.8 1.5-1.2 2.3-1.2.8 0 1.6.4 2.3 1l6 6.3c.8.8 1.2 1.7 1.2 2.7 0 .8-.3 1.5-.8 2.2a34.7 34.7 0 0 1-12.4 9c-4.7 2-9.9 3-15.4 3zm45.2-1.8a2.8 2.8 0 0 1-2.9-2.8V29a2.8 2.8 0 0 1 2.9-2.8H848a2.8 2.8 0 0 1 3 2.8v30c2.6-2.6 5.6-4.7 9-6.2a25 25 0 0 1 10.2-2.2 30 30 0 0 1 14.9 3.6 25 25 0 0 1 10 10c2.3 4.3 3.4 9.2 3.4 14.8v48.2a2.8 2.8 0 0 1-2.8 2.8H885a2.8 2.8 0 0 1-2.8-2.8V81c0-4.8-1.2-8.5-3.7-11a13.5 13.5 0 0 0-10.3-4c-5.3 0-9.5 1.8-12.7 5.3a20.6 20.6 0 0 0-4.6 14.3v41.5a2.8 2.8 0 0 1-2.9 2.8h-10.5zm76.7 0a2.8 2.8 0 0 1-2.9-2.8v-10a2.8 2.8 0 0 1 2.9-3h10.3V67.8h-11.7a2.8 2.8 0 0 1-2.8-2.9v-9.6a2.8 2.8 0 0 1 2.8-2.9h21c1.7 0 3 .6 4.2 1.7a5.6 5.6 0 0 1 1.7 4.2V63l7.3-5.9a32 32 0 0 1 7-4.5c2-.9 4.4-1.3 7-1.3h4.3a2.8 2.8 0 0 1 2.8 2.8v10.5a2.8 2.8 0 0 1-2.8 2.8h-3.5c-2.4 0-4.4.4-6.1 1.2-1.8.9-4.4 2.7-8 5.5l-7.4 6v34h13.5a2.8 2.8 0 0 1 2.8 3v10a2.8 2.8 0 0 1-2.8 2.8h-39.6zm92.6 1.8a31.8 31.8 0 0 1-28-15.9 30.6 30.6 0 0 1-4.3-15.8V82.3a32 32 0 0 1 32.3-31.7 31.8 31.8 0 0 1 27.9 15.8 30.6 30.6 0 0 1 4.3 15.9v17.8a32 32 0 0 1-32.3 31.7zm0-15.8a15.8 15.8 0 0 0 16-15.9V82.3c0-4.4-1.6-8.2-4.7-11.3a15.4 15.4 0 0 0-11.3-4.7c-4.5 0-8.2 1.6-11.3 4.7a15.4 15.4 0 0 0-4.7 11.3v17.8c0 4.4 1.5 8.1 4.7 11.3 3 3 6.8 4.6 11.3 4.6zm50 14a2.8 2.8 0 0 1-2.8-2.8v-72a2.8 2.8 0 0 1 2.8-2.9h10.6a2.8 2.8 0 0 1 2.8 2.9v7c2.6-3.8 5.7-6.8 9.3-8.7a24.8 24.8 0 0 1 24.5.6 25 25 0 0 1 9.2 10 27.2 27.2 0 0 1 23.8-13.5c7.9 0 14.1 2.6 18.7 7.8a30 30 0 0 1 7 20.6v48.2a2.8 2.8 0 0 1-2.9 2.8h-10.6a2.8 2.8 0 0 1-2.8-2.8V81c0-4.8-1.1-8.5-3.3-11-2.1-2.6-5.2-4-9.3-4-5.3 0-9.6 1.8-12.7 5.3a20.6 20.6 0 0 0-4.7 14.3v41.5a2.8 2.8 0 0 1-2.8 2.8H1103a2.8 2.8 0 0 1-2.8-2.8V81c0-4.8-1.1-8.5-3.3-11-2.1-2.6-5.3-4-9.3-4a16 16 0 0 0-12.7 5.3 20.6 20.6 0 0 0-4.7 14.3v41.5a2.8 2.8 0 0 1-2.8 2.8h-10.6zm152 0a32.2 32.2 0 0 1-32.3-32.4l.1-14.6a32.2 32.2 0 1 1 64.5 0v9a5.6 5.6 0 0 1-5.8 5.8H1193v.8c0 4.4 1.6 8.2 4.7 11.3 3 3 6.9 4.7 11.3 4.7h21.5a2.8 2.8 0 0 1 2.9 2.8v9.8a2.8 2.8 0 0 1-2.9 2.8H1209zm16-46.8V82c0-4.4-1.5-8.2-4.6-11.3A15.4 15.4 0 0 0 1209 66c-4.4 0-8.2 1.6-11.3 4.7A15.4 15.4 0 0 0 1193 82v1.2h32z"/><path fill="#4B8BF5" d="M31 8.6l96-7.4A26 26 0 0 1 155 27v32L0 71V42.2C0 31.2 1 27 3.1 23c2-4.1 5.1-7.4 9-9.8 4-2.4 8-3.8 19-4.6z"/><path fill="#FFCD40" d="M0 70l155-12v33L0 103z"/><path fill="#DD5044" d="M0 102l155-12v32L0 134z"/><path fill="#18A160" d="M0 133l155-12v3.7a35 35 0 0 1-3.1 17c-2 4-5.1 7.4-9 9.7A35 35 0 0 1 126 156l-98 7.6a26 26 0 0 1-28-26V133z"/><circle cx="76.5" cy="82.5" r="43.5" fill="#FFF" stroke="#000" stroke-linecap="round" stroke-linejoin="round" stroke-width="4"/></g></svg>