<svg xmlns="http://www.w3.org/2000/svg" font-family="sans-serif" viewBox="0 0 888 1767"><text x="35" y="12.5" text-anchor="middle" fill="#6a737d" font-size="13">chrome</text><text x="111" y="12.5" text-anchor="middle" fill="#6a737d" font-size="13">yabrowser</text><text x="187" y="12.5" text-anchor="middle" fill="#6a737d" font-size="13">coccoc</text><rect x=".5" y="24.5" width="70" height="40" rx="3" fill="#f6f8fa" stroke="#ddd"/><text x="35" y="45.5" text-anchor="middle" dominant-baseline="central">19</text><rect x="76.5" y="24.5" width="70" height="40" rx="3" fill="#f1f8ff" stroke="#c8e1ff"/><text x="111" y="45.5" text-anchor="middle" dominant-baseline="central">1.0+</text><rect x=".5" y="70.5" width="70" height="40" rx="3" fill="#f6f8fa" stroke="#ddd"/><text x="35" y="91.5" text-anchor="middle" dominant-baseline="central">22</text><rect x="76.5" y="70.5" width="70" height="40" rx="3" fill="#f1f8ff" stroke="#c8e1ff"/><text x="111" y="91.5" text-anchor="middle" dominant-baseline="central">1.5</text><rect x=".5" y="116.5" width="70" height="40" rx="3" fill="#f6f8fa" stroke="#ddd"/><text x="35" y="137.5" text-anchor="middle" dominant-baseline="central">25</text><rect x="76.5" y="116.5" width="70" height="40" rx="3" fill="#f1f8ff" stroke="#c8e1ff"/><text x="111" y="137.5" text-anchor="middle" dominant-baseline="central">1.7</text><rect x=".5" y="162.5" width="70" height="40" rx="3" fill="#f6f8fa" stroke="#ddd"/><text x="35" y="183.5" text-anchor="middle" dominant-baseline="central">28</text><rect x="76.5" y="162.5" width="70" height="40" rx="3" fill="#f1f8ff" stroke="#c8e1ff"/><text x="111" y="183.5" text-anchor="middle" dominant-baseline="central">13.9+</text><rect x=".5" y="208.5" width="70" height="40" rx="3" fill="#f6f8fa" stroke="#ddd"/><text x="35" y="229.5" text-anchor="middle" dominant-baseline="central">30</text><rect x="76.5" y="208.5" width="70" height="40" rx="3" fill="#f1f8ff" stroke="#c8e1ff"/><text x="111" y="229.5" text-anchor="middle" dominant-baseline="central">13.12</text><rect x=".5" y="254.5" width="70" height="40" rx="3" fill="#f6f8fa" stroke="#ddd"/><text x="35" y="275.5" text-anchor="middle" dominant-baseline="central">32</text><rect x="76.5" y="254.5" width="70" height="40" rx="3" fill="#f1f8ff" stroke="#c8e1ff"/><text x="111" y="275.5" text-anchor="middle" dominant-baseline="central">14.2</text><rect x=".5" y="300.5" width="70" height="40" rx="3" fill="#f6f8fa" stroke="#ddd"/><text x="35" y="321.5" text-anchor="middle" dominant-baseline="central">33</text><rect x="76.5" y="300.5" width="70" height="40" rx="3" fill="#f1f8ff" stroke="#c8e1ff"/><text x="111" y="321.5" text-anchor="middle" dominant-baseline="central">14.4</text><rect x=".5" y="346.5" width="70" height="40" rx="3" fill="#f6f8fa" stroke="#ddd"/><text x="35" y="367.5" text-anchor="middle" dominant-baseline="central">34</text><rect x="76.5" y="346.5" width="70" height="40" rx="3" fill="#f1f8ff" stroke="#c8e1ff"/><text x="111" y="367.5" text-anchor="middle" dominant-baseline="central">14.5</text><rect x=".5" y="392.5" width="70" height="40" rx="3" fill="#f6f8fa" stroke="#ddd"/><text x="35" y="413.5" text-anchor="middle" dominant-baseline="central">35</text><rect x="76.5" y="392.5" width="70" height="40" rx="3" fill="#f1f8ff" stroke="#c8e1ff"/><text x="111" y="413.5" text-anchor="middle" dominant-baseline="central">14.7</text><rect x=".5" y="438.5" width="70" height="40" rx="3" fill="#f6f8fa" stroke="#ddd"/><text x="35" y="459.5" text-anchor="middle" dominant-baseline="central">36</text><rect x="76.5" y="438.5" width="70" height="40" rx="3" fill="#f1f8ff" stroke="#c8e1ff"/><text x="111" y="459.5" text-anchor="middle" dominant-baseline="central">14.8</text><rect x=".5" y="484.5" width="70" height="40" rx="3" fill="#f6f8fa" stroke="#ddd"/><text x="35" y="505.5" text-anchor="middle" dominant-baseline="central">37</text><rect x="76.5" y="484.5" width="70" height="40" rx="3" fill="#f1f8ff" stroke="#c8e1ff"/><text x="111" y="505.5" text-anchor="middle" dominant-baseline="central">14.10</text><rect x=".5" y="530.5" width="70" height="40" rx="3" fill="#f6f8fa" stroke="#ddd"/><text x="35" y="551.5" text-anchor="middle" dominant-baseline="central">38</text><rect x="76.5" y="530.5" width="70" height="40" rx="3" fill="#f1f8ff" stroke="#c8e1ff"/><text x="111" y="551.5" text-anchor="middle" dominant-baseline="central">14.12</text><rect x="152.5" y="530.5" width="70" height="40" rx="3" fill="#f1f8ff" stroke="#c8e1ff"/><text x="187" y="551.5" text-anchor="middle" dominant-baseline="central">44.0</text><rect x=".5" y="576.5" width="70" height="40" rx="3" fill="#f6f8fa" stroke="#ddd"/><text x="35" y="597.5" text-anchor="middle" dominant-baseline="central">39</text><rect x="76.5" y="576.5" width="70" height="40" rx="3" fill="#f1f8ff" stroke="#c8e1ff"/><text x="111" y="597.5" text-anchor="middle" dominant-baseline="central">45.0</text><rect x=".5" y="622.5" width="70" height="40" rx="3" fill="#f6f8fa" stroke="#ddd"/><text x="35" y="643.5" text-anchor="middle" dominant-baseline="central">40</text><rect x="76.5" y="622.5" width="70" height="40" rx="3" fill="#f1f8ff" stroke="#c8e1ff"/><text x="111" y="643.5" text-anchor="middle" dominant-baseline="central">15.2</text><rect x="152.5" y="622.5" width="70" height="40" rx="3" fill="#f1f8ff" stroke="#c8e1ff"/><text x="187" y="643.5" text-anchor="middle" dominant-baseline="central">46.0</text><rect x=".5" y="668.5" width="70" height="40" rx="3" fill="#f6f8fa" stroke="#ddd"/><text x="35" y="689.5" text-anchor="middle" dominant-baseline="central">41</text><rect x="76.5" y="668.5" width="70" height="40" rx="3" fill="#f1f8ff" stroke="#c8e1ff"/><text x="111" y="689.5" text-anchor="middle" dominant-baseline="central">15.4</text><rect x="152.5" y="668.5" width="70" height="40" rx="3" fill="#f1f8ff" stroke="#c8e1ff"/><text x="187" y="689.5" text-anchor="middle" dominant-baseline="central">47.0</text><rect x=".5" y="714.5" width="70" height="40" rx="3" fill="#f6f8fa" stroke="#ddd"/><text x="35" y="735.5" text-anchor="middle" dominant-baseline="central">42</text><rect x="76.5" y="714.5" width="70" height="40" rx="3" fill="#f1f8ff" stroke="#c8e1ff"/><text x="111" y="735.5" text-anchor="middle" dominant-baseline="central">15.6</text><rect x="152.5" y="714.5" width="70" height="40" rx="3" fill="#f1f8ff" stroke="#c8e1ff"/><text x="187" y="735.5" text-anchor="middle" dominant-baseline="central">48.0</text><rect x=".5" y="760.5" width="70" height="40" rx="3" fill="#f6f8fa" stroke="#ddd"/><text x="35" y="781.5" text-anchor="middle" dominant-baseline="central">43</text><rect x="76.5" y="760.5" width="70" height="40" rx="3" fill="#f1f8ff" stroke="#c8e1ff"/><text x="111" y="781.5" text-anchor="middle" dominant-baseline="central">15.7</text><rect x="152.5" y="760.5" width="70" height="40" rx="3" fill="#f1f8ff" stroke="#c8e1ff"/><text x="187" y="781.5" text-anchor="middle" dominant-baseline="central">49.0</text><rect x=".5" y="806.5" width="70" height="40" rx="3" fill="#f6f8fa" stroke="#ddd"/><text x="35" y="827.5" text-anchor="middle" dominant-baseline="central">44</text><rect x="76.5" y="806.5" width="70" height="40" rx="3" fill="#f1f8ff" stroke="#c8e1ff"/><text x="111" y="827.5" text-anchor="middle" dominant-baseline="central">15.9</text><rect x="152.5" y="806.5" width="70" height="40" rx="3" fill="#f1f8ff" stroke="#c8e1ff"/><text x="187" y="827.5" text-anchor="middle" dominant-baseline="central">50.0+</text><rect x=".5" y="852.5" width="70" height="40" rx="3" fill="#f6f8fa" stroke="#ddd"/><text x="35" y="873.5" text-anchor="middle" dominant-baseline="central">45</text><rect x="76.5" y="852.5" width="70" height="40" rx="3" fill="#f1f8ff" stroke="#c8e1ff"/><text x="111" y="873.5" text-anchor="middle" dominant-baseline="central">15.10</text><rect x="152.5" y="852.5" width="70" height="40" rx="3" fill="#f1f8ff" stroke="#c8e1ff"/><text x="187" y="873.5" text-anchor="middle" dominant-baseline="central">51.2</text><rect x=".5" y="898.5" width="70" height="40" rx="3" fill="#f6f8fa" stroke="#ddd"/><text x="35" y="919.5" text-anchor="middle" dominant-baseline="central">46</text><rect x="76.5" y="898.5" width="70" height="40" rx="3" fill="#f1f8ff" stroke="#c8e1ff"/><text x="111" y="919.5" text-anchor="middle" dominant-baseline="central">15.12</text><rect x="152.5" y="898.5" width="70" height="40" rx="3" fill="#f1f8ff" stroke="#c8e1ff"/><text x="187" y="919.5" text-anchor="middle" dominant-baseline="central">52.2</text><rect x=".5" y="944.5" width="70" height="40" rx="3" fill="#f6f8fa" stroke="#ddd"/><text x="35" y="965.5" text-anchor="middle" dominant-baseline="central">47</text><rect x="76.5" y="944.5" width="70" height="40" rx="3" fill="#f1f8ff" stroke="#c8e1ff"/><text x="111" y="965.5" text-anchor="middle" dominant-baseline="central">16.2+</text><rect x="152.5" y="944.5" width="70" height="40" rx="3" fill="#f1f8ff" stroke="#c8e1ff"/><text x="187" y="965.5" text-anchor="middle" dominant-baseline="central">53.2</text><rect x=".5" y="990.5" width="70" height="40" rx="3" fill="#f6f8fa" stroke="#ddd"/><text x="35" y="1011.5" text-anchor="middle" dominant-baseline="central">48</text><rect x="76.5" y="990.5" width="70" height="40" rx="3" fill="#f1f8ff" stroke="#c8e1ff"/><text x="111" y="1011.5" text-anchor="middle" dominant-baseline="central">54.2</text><rect x=".5" y="1036.5" width="70" height="40" rx="3" fill="#f6f8fa" stroke="#ddd"/><text x="35" y="1057.5" text-anchor="middle" dominant-baseline="central">49</text><rect x="76.5" y="1036.5" width="70" height="40" rx="3" fill="#f1f8ff" stroke="#c8e1ff"/><text x="111" y="1057.5" text-anchor="middle" dominant-baseline="central">16.4</text><rect x="152.5" y="1036.5" width="70" height="40" rx="3" fill="#f1f8ff" stroke="#c8e1ff"/><text x="187" y="1057.5" text-anchor="middle" dominant-baseline="central">55.2</text><rect x=".5" y="1082.5" width="70" height="40" rx="3" fill="#f6f8fa" stroke="#ddd"/><text x="35" y="1103.5" text-anchor="middle" dominant-baseline="central">50</text><rect x="76.5" y="1082.5" width="70" height="40" rx="3" fill="#f1f8ff" stroke="#c8e1ff"/><text x="111" y="1103.5" text-anchor="middle" dominant-baseline="central">16.6</text><rect x="152.5" y="1082.5" width="70" height="40" rx="3" fill="#f1f8ff" stroke="#c8e1ff"/><text x="187" y="1103.5" text-anchor="middle" dominant-baseline="central">56.3</text><rect x=".5" y="1128.5" width="70" height="40" rx="3" fill="#f6f8fa" stroke="#ddd"/><text x="35" y="1149.5" text-anchor="middle" dominant-baseline="central">51</text><rect x="76.5" y="1128.5" width="70" height="40" rx="3" fill="#f1f8ff" stroke="#c8e1ff"/><text x="111" y="1149.5" text-anchor="middle" dominant-baseline="central">16.7</text><rect x=".5" y="1174.5" width="70" height="40" rx="3" fill="#f6f8fa" stroke="#ddd"/><text x="35" y="1195.5" text-anchor="middle" dominant-baseline="central">52</text><rect x="76.5" y="1174.5" width="70" height="40" rx="3" fill="#f1f8ff" stroke="#c8e1ff"/><text x="111" y="1195.5" text-anchor="middle" dominant-baseline="central">16.9</text><rect x="152.5" y="1174.5" width="70" height="40" rx="3" fill="#f1f8ff" stroke="#c8e1ff"/><text x="187" y="1195.5" text-anchor="middle" dominant-baseline="central">58.3+</text><rect x=".5" y="1220.5" width="70" height="40" rx="3" fill="#f6f8fa" stroke="#ddd"/><text x="35" y="1241.5" text-anchor="middle" dominant-baseline="central">53</text><rect x="76.5" y="1220.5" width="70" height="40" rx="3" fill="#f1f8ff" stroke="#c8e1ff"/><text x="111" y="1241.5" text-anchor="middle" dominant-baseline="central">16.10</text><rect x=".5" y="1266.5" width="70" height="40" rx="3" fill="#f6f8fa" stroke="#ddd"/><text x="35" y="1287.5" text-anchor="middle" dominant-baseline="central">54</text><rect x="76.5" y="1266.5" width="70" height="40" rx="3" fill="#f1f8ff" stroke="#c8e1ff"/><text x="111" y="1287.5" text-anchor="middle" dominant-baseline="central">16.11</text><rect x="152.5" y="1266.5" width="70" height="40" rx="3" fill="#f1f8ff" stroke="#c8e1ff"/><text x="187" y="1287.5" text-anchor="middle" dominant-baseline="central">60.3+</text><rect x=".5" y="1312.5" width="70" height="40" rx="3" fill="#f6f8fa" stroke="#ddd"/><text x="35" y="1333.5" text-anchor="middle" dominant-baseline="central">55</text><rect x="76.5" y="1312.5" width="70" height="40" rx="3" fill="#f1f8ff" stroke="#c8e1ff"/><text x="111" y="1333.5" text-anchor="middle" dominant-baseline="central">17.1</text><rect x="152.5" y="1312.5" width="70" height="40" rx="3" fill="#f1f8ff" stroke="#c8e1ff"/><text x="187" y="1333.5" text-anchor="middle" dominant-baseline="central">61.4</text><rect x=".5" y="1358.5" width="70" height="40" rx="3" fill="#f6f8fa" stroke="#ddd"/><text x="35" y="1379.5" text-anchor="middle" dominant-baseline="central">56</text><rect x="76.5" y="1358.5" width="70" height="40" rx="3" fill="#f1f8ff" stroke="#c8e1ff"/><text x="111" y="1379.5" text-anchor="middle" dominant-baseline="central">17.3</text><rect x=".5" y="1404.5" width="70" height="40" rx="3" fill="#f6f8fa" stroke="#ddd"/><text x="35" y="1425.5" text-anchor="middle" dominant-baseline="central">57</text><rect x="76.5" y="1404.5" width="70" height="40" rx="3" fill="#f1f8ff" stroke="#c8e1ff"/><text x="111" y="1425.5" text-anchor="middle" dominant-baseline="central">17.4</text><rect x="152.5" y="1404.5" width="70" height="40" rx="3" fill="#f1f8ff" stroke="#c8e1ff"/><text x="187" y="1425.5" text-anchor="middle" dominant-baseline="central">63.4</text><rect x=".5" y="1450.5" width="70" height="40" rx="3" fill="#f6f8fa" stroke="#ddd"/><text x="35" y="1471.5" text-anchor="middle" dominant-baseline="central">58</text><rect x="76.5" y="1450.5" width="70" height="40" rx="3" fill="#f1f8ff" stroke="#c8e1ff"/><text x="111" y="1471.5" text-anchor="middle" dominant-baseline="central">17.6</text><rect x="152.5" y="1450.5" width="70" height="40" rx="3" fill="#f1f8ff" stroke="#c8e1ff"/><text x="187" y="1471.5" text-anchor="middle" dominant-baseline="central">64.4</text><rect x=".5" y="1496.5" width="70" height="40" rx="3" fill="#f6f8fa" stroke="#ddd"/><text x="35" y="1517.5" text-anchor="middle" dominant-baseline="central">59</text><rect x="76.5" y="1496.5" width="70" height="40" rx="3" fill="#f1f8ff" stroke="#c8e1ff"/><text x="111" y="1517.5" text-anchor="middle" dominant-baseline="central">17.7</text><rect x=".5" y="1542.5" width="70" height="40" rx="3" fill="#f6f8fa" stroke="#ddd"/><text x="35" y="1563.5" text-anchor="middle" dominant-baseline="central">60</text><rect x="76.5" y="1542.5" width="70" height="40" rx="3" fill="#f1f8ff" stroke="#c8e1ff"/><text x="111" y="1563.5" text-anchor="middle" dominant-baseline="central">17.9</text><rect x="152.5" y="1542.5" width="70" height="40" rx="3" fill="#f1f8ff" stroke="#c8e1ff"/><text x="187" y="1563.5" text-anchor="middle" dominant-baseline="central">66.4</text><rect x=".5" y="1588.5" width="70" height="40" rx="3" fill="#f6f8fa" stroke="#ddd"/><text x="35" y="1609.5" text-anchor="middle" dominant-baseline="central">61</text><rect x="76.5" y="1588.5" width="70" height="40" rx="3" fill="#f1f8ff" stroke="#c8e1ff"/><text x="111" y="1609.5" text-anchor="middle" dominant-baseline="central">17.10</text><rect x=".5" y="1634.5" width="70" height="40" rx="3" fill="#f6f8fa" stroke="#ddd"/><text x="35" y="1655.5" text-anchor="middle" dominant-baseline="central">62</text><rect x="76.5" y="1634.5" width="70" height="40" rx="3" fill="#f1f8ff" stroke="#c8e1ff"/><text x="111" y="1655.5" text-anchor="middle" dominant-baseline="central">17.11</text><rect x="152.5" y="1634.5" width="70" height="40" rx="3" fill="#f1f8ff" stroke="#c8e1ff"/><text x="187" y="1655.5" text-anchor="middle" dominant-baseline="central">68.4</text><rect x=".5" y="1680.5" width="70" height="40" rx="3" fill="#f6f8fa" stroke="#ddd"/><text x="35" y="1701.5" text-anchor="middle" dominant-baseline="central">63</text><rect x="76.5" y="1680.5" width="70" height="40" rx="3" fill="#f1f8ff" stroke="#c8e1ff"/><text x="111" y="1701.5" text-anchor="middle" dominant-baseline="central">18.1+</text><rect x=".5" y="1726.5" width="70" height="40" rx="3" fill="#f6f8fa" stroke="#ddd"/><text x="35" y="1747.5" text-anchor="middle" dominant-baseline="central">64</text><rect x="76.5" y="1726.5" width="70" height="40" rx="3" fill="#f1f8ff" stroke="#c8e1ff"/><text x="111" y="1747.5" text-anchor="middle" dominant-baseline="central">18.3</text></svg>