<svg xmlns="http://www.w3.org/2000/svg" font-family="sans-serif" text-anchor="middle" viewBox="0 0 888 1767"><text x="35" y="12.5" fill="#6a737d" font-size="13">chrome</text><text x="111" y="12.5" fill="#6a737d" font-size="13">yabrowser</text><text x="187" y="12.5" fill="#6a737d" font-size="13">coccoc</text><rect x=".5" y="24.5" width="70" height="40" rx="3" fill="#f6f8fa" stroke="#ddd"/><text x="35" y="50">19</text><rect x="76.5" y="24.5" width="70" height="40" rx="3" fill="#f1f8ff" stroke="#c8e1ff"/><text x="111" y="50">1.0+</text><rect x=".5" y="70.5" width="70" height="40" rx="3" fill="#f6f8fa" stroke="#ddd"/><text x="35" y="96">22</text><rect x="76.5" y="70.5" width="70" height="40" rx="3" fill="#f1f8ff" stroke="#c8e1ff"/><text x="111" y="96">1.5</text><rect x=".5" y="116.5" width="70" height="40" rx="3" fill="#f6f8fa" stroke="#ddd"/><text x="35" y="142">25</text><rect x="76.5" y="116.5" width="70" height="40" rx="3" fill="#f1f8ff" stroke="#c8e1ff"/><text x="111" y="142">1.7</text><rect x=".5" y="162.5" width="70" height="40" rx="3" fill="#f6f8fa" stroke="#ddd"/><text x="35" y="188">28</text><rect x="76.5" y="162.5" width="70" height="40" rx="3" fill="#f1f8ff" stroke="#c8e1ff"/><text x="111" y="188">13.9+</text><rect x=".5" y="208.5" width="70" height="40" rx="3" fill="#f6f8fa" stroke="#ddd"/><text x="35" y="234">30</text><rect x="76.5" y="208.5" width="70" height="40" rx="3" fill="#f1f8ff" stroke="#c8e1ff"/><text x="111" y="234">13.12</text><rect x=".5" y="254.5" width="70" height="40" rx="3" fill="#f6f8fa" stroke="#ddd"/><text x="35" y="280">32</text><rect x="76.5" y="254.5" width="70" height="40" rx="3" fill="#f1f8ff" stroke="#c8e1ff"/><text x="111" y="280">14.2</text><rect x=".5" y="300.5" width="70" height="40" rx="3" fill="#f6f8fa" stroke="#ddd"/><text x="35" y="326">33</text><rect x="76.5" y="300.5" width="70" height="40" rx="3" fill="#f1f8ff" stroke="#c8e1ff"/><text x="111" y="326">14.4</text><rect x=".5" y="346.5" width="70" height="40" rx="3" fill="#f6f8fa" stroke="#ddd"/><text x="35" y="372">34</text><rect x="76.5" y="346.5" width="70" height="40" rx="3" fill="#f1f8ff" stroke="#c8e1ff"/><text x="111" y="372">14.5</text><rect x=".5" y="392.5" width="70" height="40" rx="3" fill="#f6f8fa" stroke="#ddd"/><text x="35" y="418">35</text><rect x="76.5" y="392.5" width="70" height="40" rx="3" fill="#f1f8ff" stroke="#c8e1ff"/><text x="111" y="418">14.7</text><rect x=".5" y="438.5" width="70" height="40" rx="3" fill="#f6f8fa" stroke="#ddd"/><text x="35" y="464">36</text><rect x="76.5" y="438.5" width="70" height="40" rx="3" fill="#f1f8ff" stroke="#c8e1ff"/><text x="111" y="464">14.8</text><rect x=".5" y="484.5" width="70" height="40" rx="3" fill="#f6f8fa" stroke="#ddd"/><text x="35" y="510">37</text><rect x="76.5" y="484.5" width="70" height="40" rx="3" fill="#f1f8ff" stroke="#c8e1ff"/><text x="111" y="510">14.10</text><rect x=".5" y="530.5" width="70" height="40" rx="3" fill="#f6f8fa" stroke="#ddd"/><text x="35" y="556">38</text><rect x="76.5" y="530.5" width="70" height="40" rx="3" fill="#f1f8ff" stroke="#c8e1ff"/><text x="111" y="556">14.12</text><rect x="152.5" y="530.5" width="70" height="40" rx="3" fill="#f1f8ff" stroke="#c8e1ff"/><text x="187" y="556">44.0</text><rect x=".5" y="576.5" width="70" height="40" rx="3" fill="#f6f8fa" stroke="#ddd"/><text x="35" y="602">39</text><rect x="76.5" y="576.5" width="70" height="40" rx="3" fill="#f1f8ff" stroke="#c8e1ff"/><text x="111" y="602">45.0</text><rect x=".5" y="622.5" width="70" height="40" rx="3" fill="#f6f8fa" stroke="#ddd"/><text x="35" y="648">40</text><rect x="76.5" y="622.5" width="70" height="40" rx="3" fill="#f1f8ff" stroke="#c8e1ff"/><text x="111" y="648">15.2</text><rect x="152.5" y="622.5" width="70" height="40" rx="3" fill="#f1f8ff" stroke="#c8e1ff"/><text x="187" y="648">46.0</text><rect x=".5" y="668.5" width="70" height="40" rx="3" fill="#f6f8fa" stroke="#ddd"/><text x="35" y="694">41</text><rect x="76.5" y="668.5" width="70" height="40" rx="3" fill="#f1f8ff" stroke="#c8e1ff"/><text x="111" y="694">15.4</text><rect x="152.5" y="668.5" width="70" height="40" rx="3" fill="#f1f8ff" stroke="#c8e1ff"/><text x="187" y="694">47.0</text><rect x=".5" y="714.5" width="70" height="40" rx="3" fill="#f6f8fa" stroke="#ddd"/><text x="35" y="740">42</text><rect x="76.5" y="714.5" width="70" height="40" rx="3" fill="#f1f8ff" stroke="#c8e1ff"/><text x="111" y="740">15.6</text><rect x="152.5" y="714.5" width="70" height="40" rx="3" fill="#f1f8ff" stroke="#c8e1ff"/><text x="187" y="740">48.0</text><rect x=".5" y="760.5" width="70" height="40" rx="3" fill="#f6f8fa" stroke="#ddd"/><text x="35" y="786">43</text><rect x="76.5" y="760.5" width="70" height="40" rx="3" fill="#f1f8ff" stroke="#c8e1ff"/><text x="111" y="786">15.7</text><rect x="152.5" y="760.5" width="70" height="40" rx="3" fill="#f1f8ff" stroke="#c8e1ff"/><text x="187" y="786">49.0</text><rect x=".5" y="806.5" width="70" height="40" rx="3" fill="#f6f8fa" stroke="#ddd"/><text x="35" y="832">44</text><rect x="76.5" y="806.5" width="70" height="40" rx="3" fill="#f1f8ff" stroke="#c8e1ff"/><text x="111" y="832">15.9</text><rect x="152.5" y="806.5" width="70" height="40" rx="3" fill="#f1f8ff" stroke="#c8e1ff"/><text x="187" y="832">50.0+</text><rect x=".5" y="852.5" width="70" height="40" rx="3" fill="#f6f8fa" stroke="#ddd"/><text x="35" y="878">45</text><rect x="76.5" y="852.5" width="70" height="40" rx="3" fill="#f1f8ff" stroke="#c8e1ff"/><text x="111" y="878">15.10</text><rect x="152.5" y="852.5" width="70" height="40" rx="3" fill="#f1f8ff" stroke="#c8e1ff"/><text x="187" y="878">51.2</text><rect x=".5" y="898.5" width="70" height="40" rx="3" fill="#f6f8fa" stroke="#ddd"/><text x="35" y="924">46</text><rect x="76.5" y="898.5" width="70" height="40" rx="3" fill="#f1f8ff" stroke="#c8e1ff"/><text x="111" y="924">15.12</text><rect x="152.5" y="898.5" width="70" height="40" rx="3" fill="#f1f8ff" stroke="#c8e1ff"/><text x="187" y="924">52.2</text><rect x=".5" y="944.5" width="70" height="40" rx="3" fill="#f6f8fa" stroke="#ddd"/><text x="35" y="970">47</text><rect x="76.5" y="944.5" width="70" height="40" rx="3" fill="#f1f8ff" stroke="#c8e1ff"/><text x="111" y="970">16.2+</text><rect x="152.5" y="944.5" width="70" height="40" rx="3" fill="#f1f8ff" stroke="#c8e1ff"/><text x="187" y="970">53.2</text><rect x=".5" y="990.5" width="70" height="40" rx="3" fill="#f6f8fa" stroke="#ddd"/><text x="35" y="1016">48</text><rect x="76.5" y="990.5" width="70" height="40" rx="3" fill="#f1f8ff" stroke="#c8e1ff"/><text x="111" y="1016">54.2</text><rect x=".5" y="1036.5" width="70" height="40" rx="3" fill="#f6f8fa" stroke="#ddd"/><text x="35" y="1062">49</text><rect x="76.5" y="1036.5" width="70" height="40" rx="3" fill="#f1f8ff" stroke="#c8e1ff"/><text x="111" y="1062">16.4</text><rect x="152.5" y="1036.5" width="70" height="40" rx="3" fill="#f1f8ff" stroke="#c8e1ff"/><text x="187" y="1062">55.2</text><rect x=".5" y="1082.5" width="70" height="40" rx="3" fill="#f6f8fa" stroke="#ddd"/><text x="35" y="1108">50</text><rect x="76.5" y="1082.5" width="70" height="40" rx="3" fill="#f1f8ff" stroke="#c8e1ff"/><text x="111" y="1108">16.6</text><rect x="152.5" y="1082.5" width="70" height="40" rx="3" fill="#f1f8ff" stroke="#c8e1ff"/><text x="187" y="1108">56.3</text><rect x=".5" y="1128.5" width="70" height="40" rx="3" fill="#f6f8fa" stroke="#ddd"/><text x="35" y="1154">51</text><rect x="76.5" y="1128.5" width="70" height="40" rx="3" fill="#f1f8ff" stroke="#c8e1ff"/><text x="111" y="1154">16.7</text><rect x=".5" y="1174.5" width="70" height="40" rx="3" fill="#f6f8fa" stroke="#ddd"/><text x="35" y="1200">52</text><rect x="76.5" y="1174.5" width="70" height="40" rx="3" fill="#f1f8ff" stroke="#c8e1ff"/><text x="111" y="1200">16.9</text><rect x="152.5" y="1174.5" width="70" height="40" rx="3" fill="#f1f8ff" stroke="#c8e1ff"/><text x="187" y="1200">58.3+</text><rect x=".5" y="1220.5" width="70" height="40" rx="3" fill="#f6f8fa" stroke="#ddd"/><text x="35" y="1246">53</text><rect x="76.5" y="1220.5" width="70" height="40" rx="3" fill="#f1f8ff" stroke="#c8e1ff"/><text x="111" y="1246">16.10</text><rect x=".5" y="1266.5" width="70" height="40" rx="3" fill="#f6f8fa" stroke="#ddd"/><text x="35" y="1292">54</text><rect x="76.5" y="1266.5" width="70" height="40" rx="3" fill="#f1f8ff" stroke="#c8e1ff"/><text x="111" y="1292">16.11</text><rect x="152.5" y="1266.5" width="70" height="40" rx="3" fill="#f1f8ff" stroke="#c8e1ff"/><text x="187" y="1292">60.3+</text><rect x=".5" y="1312.5" width="70" height="40" rx="3" fill="#f6f8fa" stroke="#ddd"/><text x="35" y="1338">55</text><rect x="76.5" y="1312.5" width="70" height="40" rx="3" fill="#f1f8ff" stroke="#c8e1ff"/><text x="111" y="1338">17.1</text><rect x="152.5" y="1312.5" width="70" height="40" rx="3" fill="#f1f8ff" stroke="#c8e1ff"/><text x="187" y="1338">61.4</text><rect x=".5" y="1358.5" width="70" height="40" rx="3" fill="#f6f8fa" stroke="#ddd"/><text x="35" y="1384">56</text><rect x="76.5" y="1358.5" width="70" height="40" rx="3" fill="#f1f8ff" stroke="#c8e1ff"/><text x="111" y="1384">17.3</text><rect x=".5" y="1404.5" width="70" height="40" rx="3" fill="#f6f8fa" stroke="#ddd"/><text x="35" y="1430">57</text><rect x="76.5" y="1404.5" width="70" height="40" rx="3" fill="#f1f8ff" stroke="#c8e1ff"/><text x="111" y="1430">17.4</text><rect x="152.5" y="1404.5" width="70" height="40" rx="3" fill="#f1f8ff" stroke="#c8e1ff"/><text x="187" y="1430">63.4</text><rect x=".5" y="1450.5" width="70" height="40" rx="3" fill="#f6f8fa" stroke="#ddd"/><text x="35" y="1476">58</text><rect x="76.5" y="1450.5" width="70" height="40" rx="3" fill="#f1f8ff" stroke="#c8e1ff"/><text x="111" y="1476">17.6</text><rect x="152.5" y="1450.5" width="70" height="40" rx="3" fill="#f1f8ff" stroke="#c8e1ff"/><text x="187" y="1476">64.4</text><rect x=".5" y="1496.5" width="70" height="40" rx="3" fill="#f6f8fa" stroke="#ddd"/><text x="35" y="1522">59</text><rect x="76.5" y="1496.5" width="70" height="40" rx="3" fill="#f1f8ff" stroke="#c8e1ff"/><text x="111" y="1522">17.7</text><rect x=".5" y="1542.5" width="70" height="40" rx="3" fill="#f6f8fa" stroke="#ddd"/><text x="35" y="1568">60</text><rect x="76.5" y="1542.5" width="70" height="40" rx="3" fill="#f1f8ff" stroke="#c8e1ff"/><text x="111" y="1568">17.9</text><rect x="152.5" y="1542.5" width="70" height="40" rx="3" fill="#f1f8ff" stroke="#c8e1ff"/><text x="187" y="1568">66.4</text><rect x=".5" y="1588.5" width="70" height="40" rx="3" fill="#f6f8fa" stroke="#ddd"/><text x="35" y="1614">61</text><rect x="76.5" y="1588.5" width="70" height="40" rx="3" fill="#f1f8ff" stroke="#c8e1ff"/><text x="111" y="1614">17.10</text><rect x=".5" y="1634.5" width="70" height="40" rx="3" fill="#f6f8fa" stroke="#ddd"/><text x="35" y="1660">62</text><rect x="76.5" y="1634.5" width="70" height="40" rx="3" fill="#f1f8ff" stroke="#c8e1ff"/><text x="111" y="1660">17.11</text><rect x="152.5" y="1634.5" width="70" height="40" rx="3" fill="#f1f8ff" stroke="#c8e1ff"/><text x="187" y="1660">68.4</text><rect x=".5" y="1680.5" width="70" height="40" rx="3" fill="#f6f8fa" stroke="#ddd"/><text x="35" y="1706">63</text><rect x="76.5" y="1680.5" width="70" height="40" rx="3" fill="#f1f8ff" stroke="#c8e1ff"/><text x="111" y="1706">18.1+</text><rect x=".5" y="1726.5" width="70" height="40" rx="3" fill="#f6f8fa" stroke="#ddd"/><text x="35" y="1752">64</text><rect x="76.5" y="1726.5" width="70" height="40" rx="3" fill="#f1f8ff" stroke="#c8e1ff"/><text x="111" y="1752">18.3</text></svg>