<svg xmlns="http://www.w3.org/2000/svg" font-family="sans-serif" text-anchor="middle" viewBox="0 0 888 1813"><text x="45" y="12.5" fill="#6a737d" font-size="13">Chrome</text><text x="141" y="12.5" fill="#6a737d" font-size="13">YaBrowser</text><text x="237" y="12.5" fill="#6a737d" font-size="13">CocCoc</text><text x="333" y="12.5" fill="#6a737d" font-size="13">QQBrowser-win</text><text x="429" y="12.5" fill="#6a737d" font-size="13">Electron</text><rect x=".5" y="24.5" width="90" height="40" rx="3" fill="#f6f8fa" stroke="#ddd"/><text x="45" y="50">19</text><rect x="96.5" y="24.5" width="90" height="40" rx="3" fill="#f1f8ff" stroke="#c8e1ff"/><text x="141" y="50">1.0+</text><rect x=".5" y="70.5" width="90" height="40" rx="3" fill="#f6f8fa" stroke="#ddd"/><text x="45" y="96">22</text><rect x="96.5" y="70.5" width="90" height="40" rx="3" fill="#f1f8ff" stroke="#c8e1ff"/><text x="141" y="96">1.5</text><rect x=".5" y="116.5" width="90" height="40" rx="3" fill="#f6f8fa" stroke="#ddd"/><text x="45" y="142">25</text><rect x="96.5" y="116.5" width="90" height="40" rx="3" fill="#f1f8ff" stroke="#c8e1ff"/><text x="141" y="142">1.7</text><rect x=".5" y="162.5" width="90" height="40" rx="3" fill="#f6f8fa" stroke="#ddd"/><text x="45" y="188">28</text><rect x="96.5" y="162.5" width="90" height="40" rx="3" fill="#f1f8ff" stroke="#c8e1ff"/><text x="141" y="188">13.9+</text><rect x=".5" y="208.5" width="90" height="40" rx="3" fill="#f6f8fa" stroke="#ddd"/><text x="45" y="234">30</text><rect x="96.5" y="208.5" width="90" height="40" rx="3" fill="#f1f8ff" stroke="#c8e1ff"/><text x="141" y="234">13.12</text><rect x=".5" y="254.5" width="90" height="40" rx="3" fill="#f6f8fa" stroke="#ddd"/><text x="45" y="280">31</text><rect x="288.5" y="254.5" width="90" height="40" rx="3" fill="#f1f8ff" stroke="#c8e1ff"/><text x="333" y="280">7.7+</text><rect x=".5" y="300.5" width="90" height="40" rx="3" fill="#f6f8fa" stroke="#ddd"/><text x="45" y="326">32</text><rect x="96.5" y="300.5" width="90" height="40" rx="3" fill="#f1f8ff" stroke="#c8e1ff"/><text x="141" y="326">14.2</text><rect x=".5" y="346.5" width="90" height="40" rx="3" fill="#f6f8fa" stroke="#ddd"/><text x="45" y="372">33</text><rect x="96.5" y="346.5" width="90" height="40" rx="3" fill="#f1f8ff" stroke="#c8e1ff"/><text x="141" y="372">14.4</text><rect x=".5" y="392.5" width="90" height="40" rx="3" fill="#f6f8fa" stroke="#ddd"/><text x="45" y="418">34</text><rect x="96.5" y="392.5" width="90" height="40" rx="3" fill="#f1f8ff" stroke="#c8e1ff"/><text x="141" y="418">14.5</text><rect x=".5" y="438.5" width="90" height="40" rx="3" fill="#f6f8fa" stroke="#ddd"/><text x="45" y="464">35</text><rect x="96.5" y="438.5" width="90" height="40" rx="3" fill="#f1f8ff" stroke="#c8e1ff"/><text x="141" y="464">14.7</text><rect x=".5" y="484.5" width="90" height="40" rx="3" fill="#f6f8fa" stroke="#ddd"/><text x="45" y="510">36</text><rect x="96.5" y="484.5" width="90" height="40" rx="3" fill="#f1f8ff" stroke="#c8e1ff"/><text x="141" y="510">14.8</text><rect x=".5" y="530.5" width="90" height="40" rx="3" fill="#f6f8fa" stroke="#ddd"/><text x="45" y="556">37</text><rect x="96.5" y="530.5" width="90" height="40" rx="3" fill="#f1f8ff" stroke="#c8e1ff"/><text x="141" y="556">14.10</text><rect x=".5" y="576.5" width="90" height="40" rx="3" fill="#f6f8fa" stroke="#ddd"/><text x="45" y="602">38</text><rect x="96.5" y="576.5" width="90" height="40" rx="3" fill="#f1f8ff" stroke="#c8e1ff"/><text x="141" y="602">14.12</text><rect x="192.5" y="576.5" width="90" height="40" rx="3" fill="#f1f8ff" stroke="#c8e1ff"/><text x="237" y="602">44.0</text><rect x=".5" y="622.5" width="90" height="40" rx="3" fill="#f6f8fa" stroke="#ddd"/><text x="45" y="648">39</text><rect x="192.5" y="622.5" width="90" height="40" rx="3" fill="#f1f8ff" stroke="#c8e1ff"/><text x="237" y="648">45.0</text><rect x="384.5" y="622.5" width="90" height="40" rx="3" fill="#f1f8ff" stroke="#c8e1ff"/><text x="429" y="648">0.20</text><rect x=".5" y="668.5" width="90" height="40" rx="3" fill="#f6f8fa" stroke="#ddd"/><text x="45" y="694">40</text><rect x="96.5" y="668.5" width="90" height="40" rx="3" fill="#f1f8ff" stroke="#c8e1ff"/><text x="141" y="694">15.2</text><rect x="192.5" y="668.5" width="90" height="40" rx="3" fill="#f1f8ff" stroke="#c8e1ff"/><text x="237" y="694">46.0</text><rect x="384.5" y="668.5" width="90" height="40" rx="3" fill="#f1f8ff" stroke="#c8e1ff"/><text x="429" y="694">0.21</text><rect x=".5" y="714.5" width="90" height="40" rx="3" fill="#f6f8fa" stroke="#ddd"/><text x="45" y="740">41</text><rect x="96.5" y="714.5" width="90" height="40" rx="3" fill="#f1f8ff" stroke="#c8e1ff"/><text x="141" y="740">15.4</text><rect x="192.5" y="714.5" width="90" height="40" rx="3" fill="#f1f8ff" stroke="#c8e1ff"/><text x="237" y="740">47.0</text><rect x="384.5" y="714.5" width="90" height="40" rx="3" fill="#f1f8ff" stroke="#c8e1ff"/><text x="429" y="740">0.22+</text><rect x=".5" y="760.5" width="90" height="40" rx="3" fill="#f6f8fa" stroke="#ddd"/><text x="45" y="786">42</text><rect x="96.5" y="760.5" width="90" height="40" rx="3" fill="#f1f8ff" stroke="#c8e1ff"/><text x="141" y="786">15.6</text><rect x="192.5" y="760.5" width="90" height="40" rx="3" fill="#f1f8ff" stroke="#c8e1ff"/><text x="237" y="786">48.0</text><rect x="384.5" y="760.5" width="90" height="40" rx="3" fill="#f1f8ff" stroke="#c8e1ff"/><text x="429" y="786">0.25+</text><rect x=".5" y="806.5" width="90" height="40" rx="3" fill="#f6f8fa" stroke="#ddd"/><text x="45" y="832">43</text><rect x="96.5" y="806.5" width="90" height="40" rx="3" fill="#f1f8ff" stroke="#c8e1ff"/><text x="141" y="832">15.7</text><rect x="192.5" y="806.5" width="90" height="40" rx="3" fill="#f1f8ff" stroke="#c8e1ff"/><text x="237" y="832">49.0</text><rect x="288.5" y="806.5" width="90" height="40" rx="3" fill="#f1f8ff" stroke="#c8e1ff"/><text x="333" y="832">9.0</text><rect x="384.5" y="806.5" width="90" height="40" rx="3" fill="#f1f8ff" stroke="#c8e1ff"/><text x="429" y="832">0.28+</text><rect x=".5" y="852.5" width="90" height="40" rx="3" fill="#f6f8fa" stroke="#ddd"/><text x="45" y="878">44</text><rect x="96.5" y="852.5" width="90" height="40" rx="3" fill="#f1f8ff" stroke="#c8e1ff"/><text x="141" y="878">15.9</text><rect x="192.5" y="852.5" width="90" height="40" rx="3" fill="#f1f8ff" stroke="#c8e1ff"/><text x="237" y="878">50.0+</text><rect x="288.5" y="852.5" width="90" height="40" rx="3" fill="#f1f8ff" stroke="#c8e1ff"/><text x="333" y="878">9.1</text><rect x="384.5" y="852.5" width="90" height="40" rx="3" fill="#f1f8ff" stroke="#c8e1ff"/><text x="429" y="878">0.30+</text><rect x=".5" y="898.5" width="90" height="40" rx="3" fill="#f6f8fa" stroke="#ddd"/><text x="45" y="924">45</text><rect x="96.5" y="898.5" width="90" height="40" rx="3" fill="#f1f8ff" stroke="#c8e1ff"/><text x="141" y="924">15.10</text><rect x="192.5" y="898.5" width="90" height="40" rx="3" fill="#f1f8ff" stroke="#c8e1ff"/><text x="237" y="924">51.2</text><rect x="288.5" y="898.5" width="90" height="40" rx="3" fill="#f1f8ff" stroke="#c8e1ff"/><text x="333" y="924">9.2</text><rect x="384.5" y="898.5" width="90" height="40" rx="3" fill="#f1f8ff" stroke="#c8e1ff"/><text x="429" y="924">0.32+</text><rect x=".5" y="944.5" width="90" height="40" rx="3" fill="#f6f8fa" stroke="#ddd"/><text x="45" y="970">46</text><rect x="96.5" y="944.5" width="90" height="40" rx="3" fill="#f1f8ff" stroke="#c8e1ff"/><text x="141" y="970">15.12</text><rect x="192.5" y="944.5" width="90" height="40" rx="3" fill="#f1f8ff" stroke="#c8e1ff"/><text x="237" y="970">52.2</text><rect x=".5" y="990.5" width="90" height="40" rx="3" fill="#f6f8fa" stroke="#ddd"/><text x="45" y="1016">47</text><rect x="96.5" y="990.5" width="90" height="40" rx="3" fill="#f1f8ff" stroke="#c8e1ff"/><text x="141" y="1016">16.2+</text><rect x="192.5" y="990.5" width="90" height="40" rx="3" fill="#f1f8ff" stroke="#c8e1ff"/><text x="237" y="1016">53.2</text><rect x="288.5" y="990.5" width="90" height="40" rx="3" fill="#f1f8ff" stroke="#c8e1ff"/><text x="333" y="1016">9.3+</text><rect x="384.5" y="990.5" width="90" height="40" rx="3" fill="#f1f8ff" stroke="#c8e1ff"/><text x="429" y="1016">0.36</text><rect x=".5" y="1036.5" width="90" height="40" rx="3" fill="#f6f8fa" stroke="#ddd"/><text x="45" y="1062">48</text><rect x="192.5" y="1036.5" width="90" height="40" rx="3" fill="#f1f8ff" stroke="#c8e1ff"/><text x="237" y="1062">54.2</text><rect x=".5" y="1082.5" width="90" height="40" rx="3" fill="#f6f8fa" stroke="#ddd"/><text x="45" y="1108">49</text><rect x="96.5" y="1082.5" width="90" height="40" rx="3" fill="#f1f8ff" stroke="#c8e1ff"/><text x="141" y="1108">16.4</text><rect x="192.5" y="1082.5" width="90" height="40" rx="3" fill="#f1f8ff" stroke="#c8e1ff"/><text x="237" y="1108">55.2</text><rect x="384.5" y="1082.5" width="90" height="40" rx="3" fill="#f1f8ff" stroke="#c8e1ff"/><text x="429" y="1108">0.37+</text><rect x=".5" y="1128.5" width="90" height="40" rx="3" fill="#f6f8fa" stroke="#ddd"/><text x="45" y="1154">50</text><rect x="96.5" y="1128.5" width="90" height="40" rx="3" fill="#f1f8ff" stroke="#c8e1ff"/><text x="141" y="1154">16.6</text><rect x="192.5" y="1128.5" width="90" height="40" rx="3" fill="#f1f8ff" stroke="#c8e1ff"/><text x="237" y="1154">56.3</text><rect x="384.5" y="1128.5" width="90" height="40" rx="3" fill="#f1f8ff" stroke="#c8e1ff"/><text x="429" y="1154">1.1</text><rect x=".5" y="1174.5" width="90" height="40" rx="3" fill="#f6f8fa" stroke="#ddd"/><text x="45" y="1200">51</text><rect x="96.5" y="1174.5" width="90" height="40" rx="3" fill="#f1f8ff" stroke="#c8e1ff"/><text x="141" y="1200">16.7</text><rect x="384.5" y="1174.5" width="90" height="40" rx="3" fill="#f1f8ff" stroke="#c8e1ff"/><text x="429" y="1200">1.2</text><rect x=".5" y="1220.5" width="90" height="40" rx="3" fill="#f6f8fa" stroke="#ddd"/><text x="45" y="1246">52</text><rect x="96.5" y="1220.5" width="90" height="40" rx="3" fill="#f1f8ff" stroke="#c8e1ff"/><text x="141" y="1246">16.9</text><rect x="192.5" y="1220.5" width="90" height="40" rx="3" fill="#f1f8ff" stroke="#c8e1ff"/><text x="237" y="1246">58.3+</text><rect x="384.5" y="1220.5" width="90" height="40" rx="3" fill="#f1f8ff" stroke="#c8e1ff"/><text x="429" y="1246">1.3</text><rect x=".5" y="1266.5" width="90" height="40" rx="3" fill="#f6f8fa" stroke="#ddd"/><text x="45" y="1292">53</text><rect x="96.5" y="1266.5" width="90" height="40" rx="3" fill="#f1f8ff" stroke="#c8e1ff"/><text x="141" y="1292">16.10</text><rect x="288.5" y="1266.5" width="90" height="40" rx="3" fill="#f1f8ff" stroke="#c8e1ff"/><text x="333" y="1292">9.5+</text><rect x="384.5" y="1266.5" width="90" height="40" rx="3" fill="#f1f8ff" stroke="#c8e1ff"/><text x="429" y="1292">1.4</text><rect x=".5" y="1312.5" width="90" height="40" rx="3" fill="#f6f8fa" stroke="#ddd"/><text x="45" y="1338">54</text><rect x="96.5" y="1312.5" width="90" height="40" rx="3" fill="#f1f8ff" stroke="#c8e1ff"/><text x="141" y="1338">16.11</text><rect x="192.5" y="1312.5" width="90" height="40" rx="3" fill="#f1f8ff" stroke="#c8e1ff"/><text x="237" y="1338">60.3+</text><rect x="384.5" y="1312.5" width="90" height="40" rx="3" fill="#f1f8ff" stroke="#c8e1ff"/><text x="429" y="1338">1.5</text><rect x=".5" y="1358.5" width="90" height="40" rx="3" fill="#f6f8fa" stroke="#ddd"/><text x="45" y="1384">55</text><rect x="96.5" y="1358.5" width="90" height="40" rx="3" fill="#f1f8ff" stroke="#c8e1ff"/><text x="141" y="1384">17.1</text><rect x="192.5" y="1358.5" width="90" height="40" rx="3" fill="#f1f8ff" stroke="#c8e1ff"/><text x="237" y="1384">61.4</text><rect x=".5" y="1404.5" width="90" height="40" rx="3" fill="#f6f8fa" stroke="#ddd"/><text x="45" y="1430">56</text><rect x="96.5" y="1404.5" width="90" height="40" rx="3" fill="#f1f8ff" stroke="#c8e1ff"/><text x="141" y="1430">17.3</text><rect x="384.5" y="1404.5" width="90" height="40" rx="3" fill="#f1f8ff" stroke="#c8e1ff"/><text x="429" y="1430">1.6</text><rect x=".5" y="1450.5" width="90" height="40" rx="3" fill="#f6f8fa" stroke="#ddd"/><text x="45" y="1476">57</text><rect x="96.5" y="1450.5" width="90" height="40" rx="3" fill="#f1f8ff" stroke="#c8e1ff"/><text x="141" y="1476">17.4</text><rect x="192.5" y="1450.5" width="90" height="40" rx="3" fill="#f1f8ff" stroke="#c8e1ff"/><text x="237" y="1476">63.4</text><rect x=".5" y="1496.5" width="90" height="40" rx="3" fill="#f6f8fa" stroke="#ddd"/><text x="45" y="1522">58</text><rect x="96.5" y="1496.5" width="90" height="40" rx="3" fill="#f1f8ff" stroke="#c8e1ff"/><text x="141" y="1522">17.6</text><rect x="192.5" y="1496.5" width="90" height="40" rx="3" fill="#f1f8ff" stroke="#c8e1ff"/><text x="237" y="1522">64.4</text><rect x="384.5" y="1496.5" width="90" height="40" rx="3" fill="#f1f8ff" stroke="#c8e1ff"/><text x="429" y="1522">1.7</text><rect x=".5" y="1542.5" width="90" height="40" rx="3" fill="#f6f8fa" stroke="#ddd"/><text x="45" y="1568">59</text><rect x="96.5" y="1542.5" width="90" height="40" rx="3" fill="#f1f8ff" stroke="#c8e1ff"/><text x="141" y="1568">17.7</text><rect x="384.5" y="1542.5" width="90" height="40" rx="3" fill="#f1f8ff" stroke="#c8e1ff"/><text x="429" y="1568">1.8</text><rect x=".5" y="1588.5" width="90" height="40" rx="3" fill="#f6f8fa" stroke="#ddd"/><text x="45" y="1614">60</text><rect x="96.5" y="1588.5" width="90" height="40" rx="3" fill="#f1f8ff" stroke="#c8e1ff"/><text x="141" y="1614">17.9</text><rect x="192.5" y="1588.5" width="90" height="40" rx="3" fill="#f1f8ff" stroke="#c8e1ff"/><text x="237" y="1614">66.4</text><rect x=".5" y="1634.5" width="90" height="40" rx="3" fill="#f6f8fa" stroke="#ddd"/><text x="45" y="1660">61</text><rect x="96.5" y="1634.5" width="90" height="40" rx="3" fill="#f1f8ff" stroke="#c8e1ff"/><text x="141" y="1660">17.10</text><rect x=".5" y="1680.5" width="90" height="40" rx="3" fill="#f6f8fa" stroke="#ddd"/><text x="45" y="1706">62</text><rect x="96.5" y="1680.5" width="90" height="40" rx="3" fill="#f1f8ff" stroke="#c8e1ff"/><text x="141" y="1706">17.11</text><rect x="192.5" y="1680.5" width="90" height="40" rx="3" fill="#f1f8ff" stroke="#c8e1ff"/><text x="237" y="1706">68.4</text><rect x=".5" y="1726.5" width="90" height="40" rx="3" fill="#f6f8fa" stroke="#ddd"/><text x="45" y="1752">63</text><rect x="96.5" y="1726.5" width="90" height="40" rx="3" fill="#f1f8ff" stroke="#c8e1ff"/><text x="141" y="1752">18.1+</text><rect x="288.5" y="1726.5" width="90" height="40" rx="3" fill="#f1f8ff" stroke="#c8e1ff"/><text x="333" y="1752">10.0</text><rect x=".5" y="1772.5" width="90" height="40" rx="3" fill="#f6f8fa" stroke="#ddd"/><text x="45" y="1798">64</text><rect x="96.5" y="1772.5" width="90" height="40" rx="3" fill="#f1f8ff" stroke="#c8e1ff"/><text x="141" y="1798">18.3</text></svg>